<svg xmlns="http://www.w3.org/2000/svg" width="91.754" height="45.293" viewBox="0 0 91.754 45.293"><g transform="translate(-120.923 68.293)"><path d="M113.449,234.615l-.053-20.279-10.557,4.3-10.686-4.3v20.279h4.1V220.348l6.524,2.764,6.533-2.6.027,14.1Z" transform="translate(28.77 -268.614)" fill="#fff" fill-rule="evenodd"/><rect width="4.373" height="20.279" transform="translate(146.704 -54.278)" fill="#fff"/><path d="M157.417,234.614h8.1c5.833,0,9.832-4,9.832-10.139s-4-10.139-9.832-10.139h-8.1Zm4.126-3.853V218.189h3.771c3.54,0,5.857,2.4,5.857,6.287s-2.318,6.287-5.857,6.287Z" transform="translate(-1.65 -268.614)" fill="#fff" fill-rule="evenodd"/><path d="M209.5,234.614h4.59l-8.45-20.278h-4.319L192.9,234.614h4.481l1.672-4.345h8.773l1.674,4.345Zm-9.043-7.909,3-7.764,3,7.764Z" transform="translate(-18.186 -268.614)" fill="#fff" fill-rule="evenodd"/><path d="M242.843,234.653c5.252,0,7.8-2.9,7.8-6.282,0-7.446-10.69-4.862-10.69-8.6,0-1.28.973-2.324,3.494-2.324a8.337,8.337,0,0,1,4.724,1.477l2.332-2.866c-1.763-1.828-4.719-2.377-7.029-2.377-5.228,0-7.749,2.868-7.749,6.32,0,7.533,10.69,4.925,10.69,8.722,0,3.826-6.318,1.8-8.562,0l-2.522,2.819a12.691,12.691,0,0,0,7.512,3.111Z" transform="translate(-37.966 -268.307)" fill="#fff" fill-rule="evenodd"/><rect width="2.697" height="7.17" transform="translate(147.542 -67.579)" fill="#f7931e"/><rect width="2.697" height="7.171" transform="translate(147.542 -67.58)" fill="none" stroke="#f7931e" stroke-linecap="round" stroke-linejoin="round" stroke-width="1.425"/><rect width="7.171" height="2.696" transform="matrix(0.863, -0.505, 0.505, 0.863, 151.571, -59.288)" fill="#6007ff"/><rect width="7.171" height="2.696" transform="translate(151.579 -59.28) rotate(-30.351)" fill="none" stroke="#6007ff" stroke-linecap="round" stroke-linejoin="round" stroke-width="1.425"/><rect width="2.696" height="7.171" transform="matrix(0.505, -0.863, 0.863, 0.505, 138.535, -60.584)" fill="#0cf"/><rect width="2.696" height="7.171" transform="matrix(0.505, -0.863, 0.863, 0.505, 138.53, -60.578)" fill="none" stroke="#0cf" stroke-linecap="round" stroke-linejoin="round" stroke-width="1.425"/><path d="M104.906,265.043h2.469v.549h-.963v3.471h-.55v-3.471h-.956Z" transform="translate(22.825 -292.249)" fill="#fff" fill-rule="evenodd"/><path d="M117.053,265.043h2.23v.549H117.6v1h1.681v.549H117.6v1.378h1.681v.548h-2.23Z" transform="translate(17.164 -292.249)" fill="#fff" fill-rule="evenodd"/><path d="M131.991,265.066v.621a2.761,2.761,0,0,0-1.2-.318,1.664,1.664,0,0,0-1.182.452,1.467,1.467,0,0,0-.478,1.111,1.45,1.45,0,0,0,.491,1.118,1.754,1.754,0,0,0,1.23.449,2.337,2.337,0,0,0,1.136-.337v.627a2.458,2.458,0,0,1-1.184.29,2.23,2.23,0,0,1-1.6-.63,2.026,2.026,0,0,1-.664-1.524,2,2,0,0,1,.652-1.5,2.188,2.188,0,0,1,1.572-.624,3.142,3.142,0,0,1,1.227.265Z" transform="translate(11.807 -292.136)" fill="#fff" fill-rule="evenodd"/><path d="M142.729,265.043h.548v1.538h1.914v-1.538h.548v4.02h-.548v-1.931h-1.914v1.931h-.548Z" transform="translate(5.196 -292.249)" fill="#fff" fill-rule="evenodd"/><path d="M156.413,264.741l2.974,3.054V264.9h.549v4.208l-2.973-3.043v2.856h-.55Z" transform="translate(-1.182 -292.108)" fill="#fff" fill-rule="evenodd"/><path d="M170.219,266.913a1.979,1.979,0,0,1,.657-1.49,2.213,2.213,0,0,1,1.577-.621,2.157,2.157,0,0,1,1.55.626,1.984,1.984,0,0,1,.65,1.485,2.068,2.068,0,0,1-.643,1.538,2.274,2.274,0,0,1-3.145,0,2.066,2.066,0,0,1-.648-1.534Zm3.853.031a1.477,1.477,0,0,0-.479-1.118,1.656,1.656,0,0,0-1.182-.456,1.581,1.581,0,0,0-1.142.463,1.5,1.5,0,0,0-.474,1.111,1.467,1.467,0,0,0,.488,1.114,1.692,1.692,0,0,0,1.194.454,1.554,1.554,0,0,0,1.124-.463,1.506,1.506,0,0,0,.471-1.1Z" transform="translate(-7.617 -292.136)" fill="#fff" fill-rule="evenodd"/><path d="M185.529,265.043h.548v3.472h1.3v.548h-1.854Z" transform="translate(-14.753 -292.249)" fill="#fff" fill-rule="evenodd"/><path d="M195.581,266.913a1.978,1.978,0,0,1,.656-1.49,2.216,2.216,0,0,1,1.579-.621,2.159,2.159,0,0,1,1.55.626,1.988,1.988,0,0,1,.648,1.485,2.072,2.072,0,0,1-.641,1.538,2.274,2.274,0,0,1-3.145,0,2.064,2.064,0,0,1-.648-1.534Zm3.853.031a1.478,1.478,0,0,0-.48-1.118,1.653,1.653,0,0,0-1.182-.456,1.573,1.573,0,0,0-1.14.463,1.493,1.493,0,0,0-.476,1.111,1.467,1.467,0,0,0,.488,1.114,1.692,1.692,0,0,0,1.2.454,1.55,1.55,0,0,0,1.122-.463,1.5,1.5,0,0,0,.468-1.1Z" transform="translate(-19.439 -292.136)" fill="#fff" fill-rule="evenodd"/><path d="M214.469,265.571l-.406.4a1.992,1.992,0,0,0-1.431-.6,1.637,1.637,0,0,0-1.182.456,1.5,1.5,0,0,0-.471,1.136,1.521,1.521,0,0,0,.456,1.073,1.672,1.672,0,0,0,1.265.478,1.408,1.408,0,0,0,1.516-1.048h-1.092v-.548h1.72a3.149,3.149,0,0,1-.056.657,1.885,1.885,0,0,1-.229.541,2.01,2.01,0,0,1-.463.532,1.858,1.858,0,0,1-.621.335,2.693,2.693,0,0,1-.789.1,2.176,2.176,0,0,1-1.662-.653,2.107,2.107,0,0,1-.622-1.494,2.03,2.03,0,0,1,.636-1.508,2.117,2.117,0,0,1,1.539-.622,2.809,2.809,0,0,1,.982.163,2.666,2.666,0,0,1,.91.6Z" transform="translate(-26.348 -292.136)" fill="#fff" fill-rule="evenodd"/><rect width="0.549" height="4.02" transform="translate(192.138 -27.206)" fill="#fff"/><path d="M234.6,265.043h2.23v.549h-1.681v1h1.681v.549h-1.681v1.378h1.681v.548H234.6Z" transform="translate(-37.627 -292.249)" fill="#fff" fill-rule="evenodd"/><path d="M248.757,265.375l-.444.357a1.85,1.85,0,0,0-.32-.272.958.958,0,0,0-.893.044.406.406,0,0,0-.184.344.416.416,0,0,0,.16.321,2.2,2.2,0,0,0,.548.308,4.029,4.029,0,0,1,.6.309,1.53,1.53,0,0,1,.355.317,1.246,1.246,0,0,1,.206.367,1.178,1.178,0,0,1,.068.405,1.143,1.143,0,0,1-.364.854,1.221,1.221,0,0,1-.883.352,1.5,1.5,0,0,1-.893-.274,1.749,1.749,0,0,1-.6-.829l.55-.156a.973.973,0,0,0,.915.679.711.711,0,0,0,.5-.179.575.575,0,0,0,.2-.45.6.6,0,0,0-.1-.327.906.906,0,0,0-.255-.27,2.8,2.8,0,0,0-.49-.247,3.735,3.735,0,0,1-.517-.257,1.364,1.364,0,0,1-.317-.274,1.176,1.176,0,0,1-.194-.318.9.9,0,0,1-.061-.337.942.942,0,0,1,.347-.736,1.24,1.24,0,0,1,.842-.3,1.7,1.7,0,0,1,.667.141,1.371,1.371,0,0,1,.552.428Z" transform="translate(-42.995 -292.136)" fill="#fff" fill-rule="evenodd"/></g></svg>